<svg width="45" height="42" viewBox="0 0 45 42" fill="none" xmlns="http://www.w3.org/2000/svg">
<path d="M44.238 35.3692C41.3336 29.4103 36.4638 20.9589 32.1665 13.5024C29.9184 9.5996 27.8029 5.91499 26.26 3.11356C25.9373 2.47769 25.4447 1.94361 24.837 1.57055C24.2293 1.19748 23.5302 1 22.8171 1C22.104 1 21.4049 1.19748 20.7972 1.57055C20.1895 1.94361 19.6969 2.47769 19.3742 3.11356C17.8382 5.91673 15.7088 9.60484 13.4624 13.5111C9.17041 20.9641 4.30238 29.412 1.39798 35.3692C1.1372 35.8993 1.00108 36.482 1.00002 37.0728C0.996771 38.1102 1.40542 39.1065 2.1362 39.8428C2.86699 40.5792 3.86016 40.9954 4.89758 41H40.7384C41.7758 40.9954 42.769 40.5792 43.4997 39.8428C44.2305 39.1065 44.6392 38.1102 44.6359 37.0728C44.6349 36.482 44.4987 35.8993 44.238 35.3692ZM40.7471 39.183H4.89932C4.62426 39.1809 4.3523 39.1247 4.09897 39.0176C3.84564 38.9104 3.61589 38.7544 3.42286 38.5584C3.22982 38.3625 3.07727 38.1304 2.97392 37.8755C2.87057 37.6206 2.81844 37.3478 2.82051 37.0728C2.82171 36.7572 2.89515 36.4462 3.0352 36.1634C5.91168 30.2638 10.7622 21.8508 15.0421 14.4153C17.2972 10.5002 19.4266 6.80341 20.9765 3.98453C21.1576 3.65232 21.4247 3.37504 21.75 3.18185C22.0753 2.98865 22.4466 2.88669 22.825 2.88669C23.2033 2.88669 23.5746 2.98865 23.8999 3.18185C24.2252 3.37504 24.4924 3.65232 24.6734 3.98453C26.2181 6.80167 28.3388 10.4968 30.5991 14.4065C34.8807 21.8369 39.733 30.2603 42.6112 36.1617C42.7514 36.4443 42.8249 36.7555 42.8259 37.071C42.8282 37.347 42.776 37.6206 42.6722 37.8763C42.5684 38.132 42.4151 38.3646 42.2211 38.5609C42.0271 38.7572 41.7963 38.9131 41.5418 39.0199C41.2874 39.1267 41.0143 39.1821 40.7384 39.183H40.7471Z" fill="#A8050E" stroke="#A8050E" stroke-width="0.3"/>
<path d="M22.818 10.0918C22.5768 10.0918 22.3455 10.1876 22.1749 10.3582C22.0044 10.5287 21.9086 10.76 21.9086 11.0012V29.1834C21.9086 29.4246 22.0044 29.6559 22.1749 29.8264C22.3455 29.997 22.5768 30.0928 22.818 30.0928C23.0591 30.0928 23.2904 29.997 23.461 29.8264C23.6315 29.6559 23.7273 29.4246 23.7273 29.1834V11.0012C23.7273 10.8818 23.7038 10.7635 23.6581 10.6532C23.6124 10.5428 23.5454 10.4426 23.461 10.3582C23.3765 10.2737 23.2763 10.2067 23.166 10.161C23.0556 10.1153 22.9374 10.0918 22.818 10.0918Z" fill="#A8050E" stroke="#A8050E" stroke-width="0.3"/>
<path d="M22.8179 35.5458C23.3202 35.5458 23.7273 35.1387 23.7273 34.6364C23.7273 34.1342 23.3202 33.7271 22.8179 33.7271C22.3157 33.7271 21.9086 34.1342 21.9086 34.6364C21.9086 35.1387 22.3157 35.5458 22.8179 35.5458Z" fill="#A8050E" stroke="#A8050E" stroke-width="0.3"/>
</svg>
