<svg width="15" height="15" viewBox="0 0 15 15" fill="none" xmlns="http://www.w3.org/2000/svg">
<path d="M12.2523 0.363525H3.66881C2.17783 0.363525 0.964844 1.57623 0.964844 3.06721V5.9233V11.651C0.964844 13.142 2.17783 14.3547 3.66881 14.3547H12.2526C13.7436 14.3547 14.9563 13.142 14.9563 11.651V5.92301V3.06693C14.956 1.57595 13.7433 0.363525 12.2523 0.363525ZM13.0279 1.97586L13.3372 1.97473V2.28263V4.34624L10.9736 4.35386L10.9654 1.98263L13.0279 1.97586ZM5.96356 5.92301C6.41172 5.30297 7.13873 4.89629 7.96056 4.89629C8.78239 4.89629 9.50939 5.30297 9.95699 5.92301C10.2485 6.32772 10.4232 6.82274 10.4232 7.35896C10.4232 8.71673 9.31748 9.82134 7.96028 9.82134C6.60222 9.82134 5.49761 8.71673 5.49761 7.35896C5.49789 6.82274 5.67202 6.32772 5.96356 5.92301ZM13.5929 11.6507C13.5929 12.3904 12.9914 12.9913 12.2523 12.9913H3.66881C2.92939 12.9913 2.32798 12.3904 2.32798 11.6507V5.92301H4.41642C4.23608 6.36667 4.13476 6.85124 4.13476 7.35896C4.13476 9.468 5.85067 11.185 7.96056 11.185C10.0702 11.185 11.7861 9.468 11.7861 7.35896C11.7861 6.85124 11.6842 6.36667 11.5039 5.92301H13.5929V11.6507Z" fill="#1E266D"/>
</svg>
