<svg width="748" height="900" viewBox="0 0 748 900" fill="none" xmlns="http://www.w3.org/2000/svg">
<rect width="748" height="900" fill="url(#paint0_linear)"/>
<circle opacity="0.4" cx="50" cy="-53" r="201" fill="#AC72FF"/>
<circle opacity="0.4" cx="146" cy="-99" r="201" fill="#AC72FF"/>
<g opacity="0.5">
<path d="M411.701 279.387C411.564 279.418 411.42 279.412 411.276 279.349C410.938 279.199 410.782 278.812 410.932 278.468C411.288 277.649 411.67 276.823 412.058 276.017C412.22 275.685 412.615 275.548 412.946 275.704C413.278 275.867 413.415 276.261 413.259 276.592C412.877 277.38 412.508 278.186 412.158 278.993C412.07 279.205 411.895 279.343 411.701 279.387Z" fill="#BC8DFF"/>
<path d="M539.727 277.949C539.427 278.024 539.102 277.874 538.964 277.58C538.207 275.942 537.375 274.316 536.487 272.74C536.305 272.421 536.418 272.015 536.743 271.834C537.062 271.646 537.469 271.765 537.65 272.09C538.551 273.691 539.402 275.354 540.171 277.023C540.328 277.361 540.178 277.755 539.846 277.911C539.808 277.924 539.771 277.936 539.727 277.949ZM532.37 265.587C532.12 265.65 531.845 265.556 531.676 265.337C530.6 263.893 529.449 262.474 528.26 261.111C528.016 260.836 528.047 260.41 528.323 260.166C528.598 259.923 529.023 259.954 529.267 260.229C530.481 261.617 531.651 263.068 532.752 264.537C532.971 264.831 532.908 265.25 532.614 265.469C532.539 265.531 532.458 265.569 532.37 265.587ZM522.649 254.989C522.442 255.039 522.217 254.989 522.048 254.839C520.697 253.639 519.283 252.476 517.85 251.388C517.556 251.163 517.5 250.744 517.725 250.45C517.951 250.156 518.363 250.1 518.664 250.325C520.128 251.438 521.566 252.62 522.943 253.845C523.218 254.089 523.243 254.514 522.999 254.789C522.893 254.889 522.774 254.958 522.649 254.989ZM417.188 269.201C417.012 269.245 416.825 269.214 416.668 269.114C416.362 268.914 416.274 268.501 416.474 268.188C417.475 266.65 418.558 265.131 419.677 263.668C419.903 263.374 420.322 263.318 420.616 263.543C420.91 263.768 420.96 264.187 420.741 264.481C419.64 265.913 418.583 267.407 417.601 268.914C417.494 269.064 417.35 269.164 417.188 269.201ZM510.981 246.58C510.819 246.617 510.644 246.598 510.494 246.511C508.93 245.611 507.309 244.766 505.683 243.991C505.351 243.835 505.207 243.435 505.364 243.103C505.52 242.772 505.921 242.628 506.252 242.784C507.916 243.572 509.561 244.435 511.157 245.354C511.476 245.536 511.588 245.948 511.401 246.267C511.307 246.423 511.15 246.536 510.981 246.58ZM426.234 258.016C426.015 258.066 425.777 258.009 425.608 257.841C425.345 257.584 425.345 257.159 425.602 256.896C426.903 255.59 428.267 254.314 429.656 253.12C429.937 252.876 430.356 252.907 430.6 253.189C430.844 253.47 430.813 253.889 430.531 254.133C429.168 255.308 427.829 256.559 426.559 257.841C426.465 257.928 426.352 257.984 426.234 258.016ZM497.838 240.734C497.719 240.759 497.594 240.759 497.475 240.721C495.767 240.165 494.009 239.664 492.245 239.239C491.889 239.152 491.67 238.795 491.751 238.433C491.839 238.076 492.201 237.851 492.558 237.939C494.353 238.37 496.143 238.877 497.888 239.446C498.238 239.558 498.432 239.939 498.313 240.29C498.245 240.521 498.057 240.684 497.838 240.734ZM437.356 248.887C437.094 248.949 436.8 248.849 436.643 248.606C436.437 248.299 436.524 247.886 436.831 247.68C438.364 246.667 439.959 245.698 441.567 244.804C441.886 244.623 442.292 244.741 442.474 245.067C442.655 245.392 442.536 245.798 442.211 245.973C440.635 246.849 439.071 247.793 437.563 248.793C437.5 248.837 437.425 248.868 437.356 248.887ZM483.781 237.707C483.706 237.726 483.631 237.732 483.55 237.72C481.754 237.52 479.934 237.395 478.126 237.332C477.757 237.32 477.469 237.013 477.481 236.644C477.494 236.276 477.801 235.988 478.17 236C480.009 236.057 481.867 236.194 483.693 236.394C484.063 236.432 484.325 236.763 484.282 237.132C484.257 237.42 484.044 237.639 483.781 237.707ZM469.393 237.595C469.361 237.601 469.33 237.607 469.299 237.614C467.503 237.782 465.689 238.026 463.913 238.333C463.55 238.395 463.206 238.151 463.143 237.789C463.08 237.426 463.337 237.088 463.687 237.02C465.502 236.701 467.353 236.457 469.18 236.282C469.549 236.25 469.874 236.519 469.906 236.882C469.937 237.22 469.712 237.52 469.393 237.595ZM450.106 242.228C449.787 242.303 449.455 242.14 449.33 241.828C449.193 241.484 449.361 241.096 449.706 240.959C451.413 240.277 453.178 239.658 454.935 239.12C455.292 239.02 455.661 239.208 455.774 239.564C455.88 239.914 455.686 240.29 455.33 240.396C453.603 240.927 451.876 241.534 450.2 242.203C450.168 242.209 450.137 242.222 450.106 242.228Z" fill="#BC8DFF"/>
<path d="M543.706 288.847C543.356 288.928 542.999 288.722 542.905 288.372C542.674 287.528 542.424 286.677 542.161 285.839C542.048 285.489 542.248 285.114 542.599 285.002C542.949 284.902 543.324 285.089 543.437 285.439C543.706 286.29 543.962 287.165 544.194 288.022C544.294 288.378 544.081 288.747 543.725 288.841C543.719 288.841 543.712 288.841 543.706 288.847Z" fill="#BC8DFF"/>
<path d="M536.462 343.069C536.299 343.107 536.124 343.088 535.967 342.994C535.648 342.806 535.542 342.394 535.736 342.081C536.186 341.318 536.624 340.549 537.037 339.78C537.212 339.455 537.619 339.336 537.944 339.511C538.269 339.686 538.388 340.093 538.213 340.418C537.788 341.199 537.344 341.987 536.887 342.763C536.781 342.919 536.63 343.025 536.462 343.069Z" fill="#BC8DFF"/>
<path d="M492.533 375.563L491.945 375.701C491.588 375.782 491.225 375.557 491.144 375.201C491.063 374.844 491.282 374.488 491.638 374.4H491.645L492.22 374.263C493.753 373.894 495.298 373.469 496.806 372.993C497.162 372.893 497.531 373.081 497.644 373.431C497.757 373.781 497.556 374.156 497.206 374.269C495.673 374.75 494.097 375.188 492.533 375.563ZM483.299 377.145C483.268 377.151 483.243 377.158 483.212 377.158C481.41 377.345 479.583 377.464 477.769 377.514C477.4 377.527 477.094 377.233 477.081 376.864C477.068 376.495 477.363 376.189 477.732 376.176C479.508 376.126 481.304 376.013 483.068 375.832C483.437 375.795 483.762 376.063 483.8 376.426C483.844 376.764 483.625 377.07 483.299 377.145ZM505.351 371.13C505.045 371.205 504.726 371.055 504.588 370.761C504.432 370.424 504.582 370.03 504.913 369.873C506.527 369.129 508.135 368.317 509.687 367.454C510.012 367.272 510.412 367.391 510.594 367.71C510.775 368.035 510.656 368.435 510.337 368.617C508.754 369.498 507.122 370.324 505.476 371.08C505.433 371.105 505.395 371.118 505.351 371.13ZM469.142 377.183C469.074 377.201 468.998 377.208 468.923 377.195C467.115 377.02 465.301 376.77 463.525 376.457C463.162 376.395 462.918 376.045 462.98 375.682C463.043 375.319 463.393 375.076 463.756 375.138C465.501 375.444 467.284 375.688 469.055 375.863C469.424 375.901 469.693 376.226 469.655 376.595C469.624 376.895 469.411 377.12 469.142 377.183ZM517.55 363.946C517.294 364.009 517.018 363.915 516.856 363.69C516.637 363.396 516.699 362.977 517 362.758C518.426 361.714 519.833 360.588 521.185 359.425C521.466 359.182 521.885 359.219 522.129 359.494C522.367 359.776 522.336 360.195 522.061 360.438C520.684 361.626 519.245 362.764 517.794 363.834C517.713 363.89 517.631 363.921 517.55 363.946ZM455.267 374.394C455.154 374.419 455.035 374.419 454.917 374.382C453.19 373.85 451.457 373.237 449.774 372.575C449.43 372.437 449.261 372.049 449.399 371.712C449.536 371.368 449.924 371.199 450.268 371.337C451.92 371.993 453.615 372.587 455.311 373.112C455.661 373.219 455.861 373.594 455.749 373.944C455.68 374.175 455.486 374.344 455.267 374.394ZM528.054 354.455C527.847 354.505 527.616 354.455 527.447 354.298C527.172 354.048 527.153 353.629 527.403 353.354C528.598 352.035 529.755 350.659 530.844 349.259C531.069 348.965 531.488 348.915 531.782 349.14C532.076 349.365 532.126 349.784 531.901 350.078C530.794 351.503 529.611 352.91 528.398 354.255C528.298 354.361 528.185 354.423 528.054 354.455ZM442.242 368.867C442.086 368.904 441.917 368.886 441.767 368.804C440.184 367.935 438.614 366.991 437.094 365.997C436.787 365.797 436.699 365.384 436.9 365.072C437.1 364.765 437.513 364.678 437.826 364.878C439.314 365.853 440.853 366.778 442.405 367.635C442.73 367.81 442.843 368.217 442.668 368.542C442.574 368.71 442.417 368.823 442.242 368.867ZM430.594 360.826C430.394 360.876 430.175 360.832 430.006 360.682C428.923 359.757 427.847 358.788 426.815 357.8C426.54 357.531 426.265 357.262 425.989 356.993C425.727 356.731 425.727 356.312 425.983 356.049C426.24 355.786 426.665 355.786 426.928 356.043C427.197 356.305 427.466 356.574 427.735 356.831C428.748 357.806 429.799 358.756 430.863 359.663C431.144 359.901 431.176 360.326 430.938 360.601C430.85 360.72 430.725 360.795 430.594 360.826ZM420.785 350.622C420.541 350.678 420.272 350.597 420.103 350.384C418.983 348.959 417.907 347.477 416.906 345.97C416.7 345.664 416.787 345.251 417.094 345.045C417.4 344.838 417.813 344.926 418.02 345.232C419.008 346.708 420.059 348.165 421.16 349.565C421.385 349.853 421.335 350.272 421.047 350.503C420.96 350.559 420.872 350.603 420.785 350.622ZM413.215 338.661C412.921 338.73 412.602 338.592 412.464 338.311C411.657 336.691 410.907 335.022 410.225 333.34C410.087 332.996 410.25 332.608 410.594 332.471C410.932 332.339 411.326 332.496 411.463 332.84C412.133 334.484 412.871 336.128 413.659 337.717C413.822 338.048 413.69 338.448 413.359 338.611C413.315 338.636 413.265 338.648 413.215 338.661Z" fill="#BC8DFF"/>
<path d="M408.217 325.393C407.866 325.48 407.51 325.268 407.416 324.918C407.191 324.061 406.972 323.18 406.778 322.304C406.696 321.942 406.947 321.604 407.284 321.504C407.647 321.423 408.004 321.648 408.085 322.01C408.279 322.873 408.492 323.736 408.711 324.58C408.805 324.936 408.592 325.299 408.235 325.399C408.229 325.393 408.223 325.393 408.217 325.393Z" fill="#BC8DFF"/>
<path d="M422.23 311.862C422.223 312.219 422.449 312.544 422.786 312.663L432.433 316.114C433.471 320.785 435.261 325.324 437.807 329.538L433.215 338.686C433.052 339.005 433.115 339.392 433.365 339.649L441.954 348.44C442.205 348.696 442.592 348.765 442.918 348.615L452.176 344.238C456.33 346.883 460.828 348.777 465.476 349.922L468.704 359.644C468.817 359.982 469.136 360.22 469.493 360.22L481.785 360.363C482.142 360.37 482.467 360.145 482.586 359.807L486.039 350.165C490.712 349.128 495.254 347.339 499.471 344.795L508.623 349.384C508.942 349.546 509.33 349.484 509.586 349.234L518.382 340.649C518.639 340.399 518.707 340.011 518.557 339.686L514.178 330.432C516.824 326.281 518.72 321.785 519.865 317.14L529.593 313.913C529.93 313.801 530.168 313.482 530.168 313.125L530.312 300.839C530.318 300.483 530.093 300.158 529.755 300.039L520.109 296.587C519.07 291.917 517.281 287.377 514.735 283.163L519.327 274.016C519.489 273.697 519.427 273.309 519.177 273.053L510.587 264.262C510.337 264.005 509.949 263.937 509.624 264.087L500.365 268.464C496.211 265.819 491.713 263.924 487.065 262.78L483.837 253.057C483.725 252.713 483.406 252.482 483.049 252.482L470.756 252.338C470.4 252.332 470.074 252.557 469.956 252.895L466.502 262.536C461.829 263.574 457.287 265.362 453.071 267.907L443.919 263.318C443.6 263.155 443.212 263.218 442.955 263.468L434.16 272.052C433.903 272.303 433.834 272.69 433.984 273.015L438.364 282.269C435.717 286.421 433.822 290.916 432.677 295.562L422.949 298.788C422.605 298.901 422.374 299.22 422.374 299.576L422.23 311.862Z" fill="#BC8DFF"/>
<path d="M479.064 317.94C479.058 317.94 479.058 317.94 479.051 317.94C475.955 318.684 472.758 318.178 470.043 316.514C467.328 314.851 465.426 312.231 464.682 309.136C463.937 306.041 464.444 302.846 466.108 300.133C469.543 294.53 476.893 292.773 482.498 296.2C485.214 297.863 487.115 300.483 487.86 303.578C488.604 306.673 488.097 309.868 486.433 312.582C484.769 315.295 482.154 317.196 479.064 317.94ZM473.953 296.725C471.382 297.344 469.205 298.926 467.822 301.177C466.44 303.434 466.014 306.091 466.634 308.667C467.253 311.244 468.836 313.419 471.094 314.801C473.352 316.183 476.011 316.608 478.589 315.989H478.595C481.166 315.37 483.343 313.788 484.726 311.537C486.108 309.28 486.534 306.623 485.914 304.047C485.295 301.471 483.712 299.295 481.454 297.913C479.195 296.531 476.537 296.106 473.959 296.725H473.953Z" fill="white"/>
<path d="M483.762 336.116C473.59 338.567 462.417 335.76 454.597 327.75C453.071 326.187 451.707 324.461 450.556 322.629L452.252 321.567C453.334 323.28 454.604 324.893 456.03 326.356C464.707 335.235 477.788 337.273 488.479 332.383C488.498 332.377 488.517 332.365 488.542 332.358C488.56 332.346 488.579 332.34 488.604 332.333C491.476 331.002 494.172 329.176 496.562 326.837C502.042 321.491 505.107 314.332 505.195 306.685C505.226 304.259 504.951 301.877 504.4 299.583C503.205 294.631 500.697 290.072 497.043 286.333C486.002 275.035 467.816 274.816 456.512 285.852C452.796 289.478 450.137 294.037 448.823 299.032L446.884 298.52C448.292 293.174 451.138 288.297 455.11 284.414C467.209 272.609 486.659 272.834 498.476 284.927C502.386 288.928 505.07 293.805 506.346 299.101C506.94 301.558 507.228 304.109 507.197 306.704C507.103 314.889 503.818 322.548 497.957 328.269C493.872 332.252 488.948 334.872 483.762 336.116Z" fill="white"/>
<path d="M532.276 298.013C532.12 298.051 531.951 298.038 531.795 297.97C531.407 297.801 531.232 297.351 531.4 296.969C531.813 296.025 532.257 295.087 532.727 294.174C532.921 293.799 533.377 293.655 533.753 293.843C534.128 294.037 534.272 294.493 534.084 294.868C533.628 295.75 533.196 296.663 532.802 297.576C532.695 297.807 532.501 297.957 532.276 298.013Z" fill="#BC8DFF"/>
<path d="M616.355 292.111C616.042 292.186 615.704 292.061 615.529 291.767C614.434 289.991 613.208 288.272 611.888 286.659C611.619 286.333 611.669 285.852 611.995 285.583C612.32 285.314 612.802 285.364 613.064 285.689C614.434 287.359 615.698 289.135 616.824 290.967C617.043 291.323 616.93 291.792 616.574 292.017C616.505 292.067 616.43 292.092 616.355 292.111ZM605.263 279.668C605.044 279.718 604.8 279.674 604.613 279.524C602.974 278.23 601.228 277.036 599.439 275.979C599.076 275.767 598.957 275.298 599.17 274.935C599.383 274.572 599.852 274.454 600.215 274.666C602.067 275.76 603.862 276.992 605.557 278.33C605.889 278.593 605.945 279.068 605.682 279.399C605.576 279.543 605.426 279.631 605.263 279.668ZM539.302 286.634C539.076 286.69 538.826 286.64 538.632 286.477C538.307 286.208 538.263 285.727 538.532 285.402C539.264 284.52 540.046 283.651 540.847 282.813C541.541 282.088 542.267 281.381 542.999 280.706C543.312 280.419 543.793 280.444 544.075 280.75C544.363 281.056 544.338 281.544 544.031 281.825C543.318 282.476 542.617 283.163 541.948 283.864C541.172 284.677 540.415 285.521 539.702 286.371C539.602 286.509 539.458 286.596 539.302 286.634ZM590.568 271.809C590.437 271.84 590.293 271.84 590.155 271.79C588.172 271.146 586.127 270.633 584.068 270.258C583.656 270.183 583.38 269.789 583.455 269.37C583.53 268.958 583.925 268.683 584.344 268.758C586.464 269.145 588.579 269.677 590.631 270.339C591.031 270.471 591.25 270.902 591.119 271.302C591.031 271.565 590.819 271.753 590.568 271.809ZM552.039 275.873C551.719 275.948 551.375 275.81 551.2 275.517C550.988 275.154 551.113 274.685 551.476 274.472C553.34 273.391 555.298 272.428 557.293 271.609C557.681 271.446 558.125 271.634 558.288 272.021C558.451 272.409 558.263 272.853 557.875 273.016C555.942 273.81 554.047 274.741 552.245 275.785C552.176 275.829 552.107 275.854 552.039 275.873ZM574.053 269.527C574.003 269.539 573.953 269.545 573.903 269.545C571.813 269.627 569.711 269.845 567.659 270.202C567.246 270.271 566.852 269.996 566.777 269.583C566.708 269.17 566.996 268.789 567.397 268.701C569.517 268.332 571.688 268.107 573.84 268.026C574.259 268.007 574.616 268.339 574.628 268.758C574.653 269.12 574.403 269.439 574.053 269.527Z" fill="#BC8DFF"/>
<path d="M621.691 304.422C621.291 304.516 620.884 304.278 620.778 303.884C620.515 302.922 620.215 301.959 619.896 301.021C619.758 300.621 619.971 300.189 620.371 300.052C620.771 299.895 621.203 300.127 621.341 300.527C621.672 301.496 621.979 302.49 622.254 303.484C622.367 303.891 622.123 304.31 621.722 304.422C621.71 304.416 621.697 304.416 621.691 304.422Z" fill="#BC8DFF"/>
<path d="M616.136 342.206C615.942 342.25 615.736 342.225 615.554 342.113C615.198 341.888 615.091 341.419 615.317 341.062C615.848 340.218 616.355 339.349 616.83 338.474C617.031 338.105 617.494 337.967 617.863 338.167C618.232 338.367 618.369 338.83 618.169 339.199C617.681 340.099 617.156 341 616.605 341.875C616.493 342.044 616.324 342.163 616.136 342.206Z" fill="#BC8DFF"/>
<path d="M590.693 362.121C590.312 362.214 589.918 361.996 589.793 361.614C589.661 361.214 589.88 360.783 590.281 360.651C592.232 360.014 594.159 359.238 596.005 358.344C596.386 358.157 596.843 358.319 597.024 358.7C597.206 359.082 597.049 359.538 596.668 359.72C594.76 360.639 592.764 361.439 590.75 362.102C590.731 362.108 590.712 362.114 590.693 362.121ZM580.734 364.234C580.703 364.24 580.665 364.246 580.634 364.253C578.526 364.472 576.38 364.547 574.266 364.484C573.846 364.472 573.515 364.121 573.527 363.703C573.54 363.284 573.89 362.952 574.309 362.965C576.361 363.027 578.438 362.946 580.478 362.74C580.897 362.696 581.272 363.002 581.316 363.421C581.353 363.803 581.097 364.146 580.734 364.234ZM605.157 354.392C604.875 354.461 604.569 354.361 604.381 354.124C604.119 353.792 604.181 353.311 604.513 353.054C606.127 351.791 607.672 350.403 609.111 348.934C609.405 348.634 609.886 348.628 610.187 348.922C610.487 349.215 610.493 349.697 610.199 349.997C608.717 351.516 607.115 352.948 605.451 354.255C605.363 354.317 605.263 354.367 605.157 354.392ZM564.369 363.084C564.256 363.109 564.131 363.115 564.006 363.084C561.948 362.571 559.902 361.921 557.932 361.145C557.537 360.989 557.35 360.545 557.5 360.157C557.656 359.763 558.1 359.576 558.488 359.726C560.396 360.476 562.373 361.108 564.369 361.602C564.775 361.702 565.026 362.114 564.926 362.527C564.863 362.815 564.638 363.021 564.369 363.084ZM549.38 356.437C549.18 356.487 548.961 356.45 548.773 356.331C547.021 355.155 545.32 353.842 543.731 352.435C543.418 352.154 543.387 351.673 543.662 351.36C543.944 351.047 544.425 351.016 544.738 351.291C546.283 352.654 547.922 353.924 549.624 355.068C549.974 355.299 550.068 355.774 549.83 356.124C549.724 356.287 549.561 356.4 549.38 356.437ZM537.538 345.095C537.25 345.164 536.931 345.064 536.743 344.807C535.486 343.1 534.328 341.293 533.315 339.436C533.115 339.067 533.246 338.605 533.615 338.405C533.984 338.198 534.447 338.336 534.647 338.705C535.636 340.506 536.749 342.256 537.969 343.907C538.219 344.245 538.144 344.726 537.807 344.97C537.725 345.032 537.631 345.07 537.538 345.095Z" fill="#BC8DFF"/>
<path d="M530.249 330.37C529.855 330.464 529.455 330.233 529.342 329.845C529.055 328.857 528.792 327.851 528.567 326.85C528.473 326.444 528.729 326.037 529.13 325.943C529.136 325.943 529.136 325.943 529.142 325.943C529.555 325.85 529.962 326.112 530.056 326.519C530.274 327.488 530.525 328.463 530.806 329.42C530.925 329.826 530.694 330.245 530.287 330.364C530.274 330.364 530.262 330.37 530.249 330.37Z" fill="#BC8DFF"/>
<path d="M539.333 319.709C539.333 319.953 539.483 320.172 539.708 320.253L546.246 322.592C546.946 325.756 548.16 328.832 549.886 331.683L546.777 337.879C546.671 338.098 546.708 338.361 546.877 338.536L552.695 344.488C552.864 344.663 553.127 344.707 553.346 344.607L559.621 341.643C562.436 343.432 565.482 344.72 568.629 345.495L570.812 352.079C570.887 352.31 571.106 352.466 571.344 352.466L579.671 352.566C579.915 352.566 580.133 352.416 580.215 352.191L582.555 345.657C585.72 344.957 588.798 343.744 591.651 342.018L597.85 345.126C598.069 345.232 598.332 345.195 598.507 345.026L604.463 339.211C604.638 339.042 604.681 338.78 604.581 338.561L601.616 332.289C603.411 329.476 604.694 326.431 605.47 323.286L612.057 321.104C612.289 321.029 612.445 320.81 612.445 320.572L612.545 312.25C612.545 312.006 612.395 311.787 612.17 311.706L605.632 309.368C604.932 306.204 603.718 303.128 601.991 300.276L605.101 294.08C605.207 293.861 605.169 293.599 605.001 293.424L599.183 287.471C599.014 287.296 598.751 287.252 598.532 287.352L592.257 290.316C589.442 288.522 586.396 287.24 583.249 286.465L581.066 279.881C580.991 279.649 580.772 279.493 580.534 279.493L572.207 279.393C571.963 279.393 571.744 279.543 571.663 279.768L569.323 286.302C566.158 287.002 563.08 288.215 560.227 289.941L554.028 286.833C553.809 286.727 553.546 286.765 553.371 286.934L547.415 292.748C547.24 292.917 547.196 293.18 547.297 293.399L550.262 299.67C548.473 302.484 547.184 305.529 546.408 308.674L539.821 310.856C539.589 310.931 539.433 311.15 539.433 311.387L539.333 319.709Z" fill="#BC8DFF"/>
<path d="M577.944 324.274H577.938C575.723 324.805 573.427 324.443 571.482 323.248C569.536 322.054 568.172 320.178 567.64 317.965C567.109 315.752 567.472 313.457 568.666 311.512C571.125 307.504 576.392 306.235 580.409 308.699C582.354 309.893 583.718 311.769 584.25 313.982C584.782 316.202 584.419 318.49 583.224 320.435C582.029 322.379 580.158 323.742 577.944 324.274ZM574.478 309.912C572.927 310.287 571.513 311.25 570.612 312.719C569.742 314.145 569.473 315.82 569.861 317.44C570.249 319.065 571.25 320.435 572.67 321.31C574.097 322.179 575.773 322.448 577.393 322.06H577.4C579.02 321.673 580.39 320.672 581.266 319.253C582.135 317.827 582.404 316.152 582.016 314.532C581.629 312.907 580.628 311.537 579.208 310.662C577.737 309.755 576.036 309.537 574.478 309.912Z" fill="white"/>
<path d="M581.128 336.591C574.084 338.286 566.346 336.348 560.928 330.802C559.99 329.839 559.145 328.795 558.407 327.688C558.313 327.544 558.219 327.4 558.125 327.256L560.065 326.037C560.778 327.169 561.616 328.238 562.567 329.201C563.618 330.276 564.763 331.196 565.976 331.965C565.983 331.965 565.983 331.971 565.989 331.971C565.995 331.977 566.001 331.977 566.008 331.983C571.425 335.403 578.219 335.822 583.981 333.209C585.47 332.534 586.896 331.652 588.203 330.57C588.247 330.533 588.285 330.501 588.329 330.464C588.36 330.433 588.397 330.408 588.429 330.376C588.516 330.301 588.598 330.226 588.685 330.151C588.917 329.945 589.142 329.732 589.367 329.52C592.989 325.987 595.016 321.254 595.072 316.196C595.091 314.595 594.91 313.019 594.547 311.5C593.759 308.224 592.101 305.21 589.68 302.74C586.145 299.12 581.41 297.094 576.349 297.038C571.288 296.975 566.508 298.889 562.886 302.428C560.428 304.829 558.67 307.836 557.8 311.144L555.585 310.562C556.561 306.861 558.532 303.484 561.285 300.796C565.345 296.832 570.7 294.687 576.374 294.756C582.048 294.824 587.353 297.094 591.313 301.152C594.021 303.922 595.879 307.298 596.768 310.969C597.181 312.669 597.381 314.432 597.356 316.233C597.287 321.904 595.016 327.206 590.956 331.171C588.128 333.915 584.719 335.722 581.128 336.591Z" fill="white"/>
<path d="M109.479 239.906C108.917 237.528 112.272 235.943 114.321 237.609C135.153 254.488 185.207 305.016 172.729 393.333C157.078 504.128 183.832 544.557 217.141 569.218C217.141 569.218 171.405 557.621 142.626 516.599C71.9713 415.873 119.426 282.208 109.479 239.906Z" fill="#BC8DFF"/>
<path d="M125.103 274.5C127.718 286.842 130.05 299.222 131.849 311.658C133.723 324.081 135.165 336.554 136.15 349.039C137.077 361.531 137.736 374.036 137.773 386.546C137.874 399.057 137.353 411.555 136.777 424.103C136.281 436.645 135.704 449.28 136.626 462.003C137.535 474.701 140.212 487.512 145.541 499.516C146.87 502.508 148.268 505.494 149.86 508.373C151.39 511.284 153.07 514.132 154.807 516.961C158.318 522.595 162.261 528.042 166.662 533.213C175.495 543.532 186.147 552.688 197.883 560.433C199.118 561.251 200.886 561.045 201.832 559.983C202.76 558.94 202.553 557.454 201.381 556.629L201.375 556.623C198.585 554.668 195.82 552.688 193.168 550.614C191.82 549.596 190.535 548.522 189.219 547.473C187.952 546.38 186.642 545.337 185.413 544.212C180.429 539.797 175.815 535.081 171.627 530.097C163.201 520.178 156.456 509.116 151.346 497.655C148.864 491.896 146.883 485.994 145.434 479.979C143.992 473.964 143.083 467.837 142.582 461.666C141.579 449.318 142.03 436.807 142.419 424.259C142.789 411.711 143.058 399.101 142.726 386.496C142.582 380.194 142.3 373.898 141.892 367.609C141.71 364.461 141.453 361.319 141.209 358.177C140.927 355.036 140.626 351.9 140.294 348.765C138.939 336.223 137.134 323.725 134.877 311.289C132.551 298.866 129.843 286.499 126.583 274.244C126.489 273.895 126.081 273.676 125.68 273.757C125.285 273.832 125.034 274.163 125.103 274.5Z" fill="white"/>
<path d="M159.759 491.611C157.201 494.324 152.703 493.543 151.164 490.148C142.675 471.415 123.469 416.293 155.192 352.786C181.98 299.157 191.408 267.532 194.692 252.876C195.386 249.775 199.634 249.368 200.916 252.27C215.067 284.326 252.427 393.346 159.759 491.611Z" fill="#BC8DFF"/>
<path d="M155.117 489.635C155.024 489.654 154.93 489.66 154.836 489.66C154.035 489.647 153.391 488.984 153.403 488.184C153.416 487.271 155.192 396.234 189.068 319.978C189.393 319.247 190.257 318.915 190.988 319.24C191.72 319.566 192.052 320.428 191.727 321.16C158.095 396.853 156.325 487.321 156.312 488.228C156.306 488.934 155.787 489.516 155.117 489.635Z" fill="white"/>
<path d="M328.267 581.185L317.475 677.837H442.663L426.358 581.185H328.267Z" fill="url(#paint1_linear)"/>
<path d="M111.284 564.284C111.284 582.992 126.189 598.295 144.894 598.777C227.95 600.918 518.447 606.115 597.516 604.95C611.106 604.75 622.111 593.874 622.506 580.288C624.033 527.45 626.506 400.385 617.341 341.399C615.413 328.976 604.928 319.685 592.364 319.284C522.773 317.055 214.823 309.986 135.798 311.765C122.17 312.071 111.284 323.204 111.284 336.841" fill="#A96DFF"/>
<path d="M126.012 336.097V552.075C126.012 562.995 134.772 571.888 145.676 572.057L586.052 577.501C596.869 577.664 605.729 568.953 605.773 558.127L606.51 344.076C606.542 336.335 600.377 329.996 592.649 329.808L141.781 320.69C133.134 320.477 126.012 327.436 126.012 336.097Z" fill="#C4A2F4"/>
<path d="M469.741 697.168H286.711C281.738 697.168 278.006 693.684 278.966 689.935L281.311 680.788C282.02 678.039 285.093 676.019 288.743 675.902L465.194 670.479C469.008 670.361 472.382 672.356 473.216 675.216L477.449 689.787C478.547 693.573 474.796 697.168 469.741 697.168Z" fill="#C4A2F4"/>
<g opacity="0.56">
<path opacity="0.53" d="M357.225 375.257L314.748 374.982C313.928 374.976 313.272 374.325 313.272 373.525L313.315 367.81C313.322 367.01 313.991 366.372 314.811 366.378L357.288 366.654C358.107 366.66 358.764 367.31 358.764 368.11L358.72 373.825C358.714 374.619 358.045 375.263 357.225 375.257Z" fill="white"/>
<path opacity="0.53" d="M455.461 375.895L370.431 375.345C369.13 375.339 368.079 374.301 368.092 373.031L368.123 369.017C368.135 367.748 369.193 366.729 370.494 366.735L455.523 367.285C456.824 367.292 457.875 368.329 457.863 369.599L457.832 373.613C457.825 374.882 456.762 375.901 455.461 375.895Z" fill="white"/>
<path opacity="0.53" d="M357.475 390.401L314.998 390.126C314.179 390.119 313.522 389.469 313.522 388.669L313.566 382.954C313.572 382.154 314.241 381.516 315.061 381.522L357.538 381.797C358.357 381.803 359.014 382.454 359.014 383.254L358.97 388.969C358.964 389.763 358.295 390.407 357.475 390.401Z" fill="white"/>
<path opacity="0.53" d="M528.817 391.514L402.061 390.689C400.76 390.682 399.709 389.644 399.721 388.375L399.752 384.361C399.765 383.092 400.822 382.073 402.123 382.079L528.88 382.904C530.181 382.91 531.232 383.948 531.219 385.218L531.188 389.232C531.182 390.501 530.118 391.52 528.817 391.514Z" fill="white"/>
<path opacity="0.53" d="M357.325 405.519L314.848 405.244C314.028 405.238 313.372 404.588 313.372 403.787L313.415 398.072C313.422 397.272 314.091 396.634 314.911 396.641L357.388 396.916C358.207 396.922 358.864 397.572 358.864 398.373L358.82 404.087C358.814 404.881 358.145 405.525 357.325 405.519Z" fill="white"/>
<path opacity="0.53" d="M584.638 406.995L418.038 405.913C416.737 405.907 415.686 404.869 415.699 403.6L415.73 399.586C415.742 398.317 416.8 397.297 418.101 397.304L584.7 398.392C586.002 398.398 587.053 399.436 587.04 400.705L587.009 404.719C587.003 405.982 585.939 407.008 584.638 406.995Z" fill="white"/>
<path opacity="0.53" d="M357.582 420.663L315.105 420.388C314.285 420.382 313.628 419.731 313.628 418.931L313.672 413.216C313.678 412.416 314.348 411.778 315.167 411.784L357.644 412.059C358.464 412.066 359.121 412.716 359.121 413.516L359.077 419.231C359.064 420.025 358.395 420.669 357.582 420.663Z" fill="white"/>
<path opacity="0.53" d="M585.426 422.145L418.826 421.064C417.525 421.057 416.474 420.019 416.487 418.75L416.518 414.736C416.531 413.467 417.588 412.448 418.889 412.454L585.488 413.536C586.79 413.542 587.841 414.58 587.828 415.849L587.797 419.863C587.791 421.132 586.727 422.152 585.426 422.145Z" fill="white"/>
<path opacity="0.53" d="M357.325 436.376L314.848 436.101C314.028 436.094 313.372 435.444 313.372 434.644L313.415 428.929C313.422 428.129 314.091 427.491 314.911 427.497L357.388 427.772C358.207 427.778 358.864 428.429 358.864 429.229L358.82 434.944C358.808 435.738 358.138 436.382 357.325 436.376Z" fill="white"/>
<path opacity="0.53" d="M584.963 437.858L418.364 436.776C417.062 436.77 416.011 435.732 416.024 434.463L416.055 430.448C416.068 429.179 417.125 428.16 418.426 428.166L585.026 429.248C586.327 429.254 587.378 430.292 587.365 431.561L587.334 435.576C587.328 436.845 586.264 437.864 584.963 437.858Z" fill="white"/>
<path opacity="0.53" d="M357.575 451.519L315.098 451.244C314.279 451.238 313.622 450.588 313.622 449.788L313.666 444.073C313.672 443.272 314.341 442.635 315.161 442.641L357.638 442.916C358.458 442.922 359.114 443.572 359.114 444.373L359.071 450.088C359.058 450.882 358.395 451.526 357.575 451.519Z" fill="white"/>
<path opacity="0.53" d="M470.099 452.251L369.856 451.601C368.554 451.594 367.503 450.556 367.516 449.287L367.547 445.273C367.56 444.004 368.617 442.985 369.918 442.991L470.162 443.641C471.463 443.647 472.514 444.685 472.502 445.955L472.47 449.969C472.464 451.238 471.401 452.257 470.099 452.251Z" fill="white"/>
<path opacity="0.53" d="M357.425 466.638L314.948 466.363C314.129 466.357 313.472 465.706 313.472 464.906L313.516 459.191C313.522 458.391 314.191 457.753 315.011 457.759L357.488 458.035C358.307 458.041 358.964 458.691 358.964 459.491L358.921 465.206C358.914 466.007 358.245 466.644 357.425 466.638Z" fill="white"/>
<path opacity="0.53" d="M519.533 467.695L393.39 466.876C392.089 466.869 391.038 465.832 391.051 464.562L391.082 460.548C391.094 459.279 392.152 458.26 393.453 458.266L519.596 459.085C520.897 459.091 521.948 460.129 521.935 461.399L521.904 465.413C521.898 466.682 520.834 467.701 519.533 467.695Z" fill="white"/>
<path opacity="0.53" d="M357.676 481.788L315.198 481.513C314.379 481.507 313.722 480.856 313.722 480.056L313.766 474.341C313.772 473.541 314.441 472.903 315.261 472.909L357.738 473.185C358.558 473.191 359.214 473.841 359.214 474.641L359.171 480.356C359.164 481.15 358.495 481.794 357.676 481.788Z" fill="white"/>
<path opacity="0.53" d="M585.751 483.27L413.334 482.151C412.033 482.144 410.982 481.106 410.994 479.837L411.025 475.823C411.038 474.554 412.095 473.535 413.396 473.541L585.814 474.66C587.115 474.666 588.166 475.704 588.154 476.973L588.122 480.988C588.116 482.257 587.052 483.276 585.751 483.27Z" fill="white"/>
<path opacity="0.53" d="M356.537 526.969L314.06 526.694C313.24 526.688 312.583 526.038 312.583 525.237L312.627 519.522C312.633 518.722 313.303 518.084 314.122 518.091L356.6 518.366C357.419 518.372 358.076 519.022 358.076 519.823L358.032 525.537C358.026 526.331 357.357 526.975 356.537 526.969Z" fill="white"/>
<path opacity="0.53" d="M469.061 527.701L368.817 527.05C367.516 527.044 366.465 526.006 366.477 524.737L366.509 520.723C366.521 519.453 367.578 518.434 368.88 518.441L469.123 519.091C470.425 519.097 471.476 520.135 471.463 521.404L471.432 525.418C471.426 526.688 470.362 527.707 469.061 527.701Z" fill="white"/>
<path opacity="0.53" d="M356.387 542.087L313.91 541.812C313.09 541.806 312.433 541.156 312.433 540.355L312.477 534.641C312.483 533.84 313.153 533.202 313.972 533.209L356.449 533.484C357.269 533.49 357.926 534.14 357.926 534.941L357.882 540.656C357.876 541.45 357.206 542.094 356.387 542.087Z" fill="white"/>
<path opacity="0.53" d="M518.432 543.138L392.289 542.319C390.988 542.313 389.937 541.275 389.949 540.006L389.981 535.991C389.993 534.722 391.05 533.703 392.352 533.709L518.495 534.528C519.796 534.535 520.847 535.572 520.834 536.842L520.803 540.856C520.79 542.131 519.733 543.151 518.432 543.138Z" fill="white"/>
<path opacity="0.53" d="M356.643 557.231L314.166 556.956C313.347 556.95 312.69 556.3 312.69 555.499L312.734 549.784C312.74 548.984 313.409 548.346 314.229 548.353L356.706 548.628C357.525 548.634 358.182 549.284 358.182 550.085L358.139 555.799C358.126 556.6 357.457 557.237 356.643 557.231Z" fill="white"/>
<path opacity="0.53" d="M584.644 558.713L412.227 557.594C410.925 557.587 409.874 556.549 409.887 555.28L409.918 551.266C409.931 549.997 410.988 548.978 412.289 548.984L584.707 550.103C586.008 550.109 587.059 551.147 587.046 552.416L587.015 556.431C587.009 557.7 585.945 558.725 584.644 558.713Z" fill="white"/>
<path opacity="0.53" d="M357.031 497.181L314.554 496.906C313.734 496.9 313.078 496.25 313.078 495.45L313.121 489.735C313.128 488.934 313.797 488.297 314.617 488.303L357.094 488.578C357.913 488.584 358.57 489.235 358.57 490.035L358.526 495.75C358.514 496.544 357.851 497.188 357.031 497.181Z" fill="white"/>
<path opacity="0.53" d="M584.281 498.657L411.864 497.538C410.563 497.532 409.512 496.494 409.524 495.225L409.555 491.211C409.568 489.941 410.625 488.922 411.926 488.929L584.344 490.048C585.645 490.054 586.696 491.092 586.683 492.361L586.652 496.375C586.646 497.645 585.582 498.67 584.281 498.657Z" fill="white"/>
<path opacity="0.53" d="M357.281 512.325L314.804 512.05C313.985 512.044 313.328 511.393 313.328 510.593L313.372 504.878C313.378 504.078 314.047 503.44 314.867 503.446L357.344 503.721C358.163 503.728 358.82 504.378 358.82 505.178L358.777 510.893C358.764 511.693 358.101 512.331 357.281 512.325Z" fill="white"/>
<path opacity="0.53" d="M585.101 513.807L412.683 512.688C411.382 512.682 410.331 511.644 410.344 510.375L410.375 506.361C410.387 505.091 411.445 504.072 412.746 504.078L585.163 505.198C586.464 505.204 587.515 506.242 587.503 507.511L587.472 511.525C587.465 512.794 586.402 513.814 585.101 513.807Z" fill="white"/>
<path opacity="0.35" d="M293.371 459.654H148.636C142.993 459.654 138.414 457.684 138.414 455.258V363.79C138.414 361.333 143.106 359.351 148.83 359.394L294.141 360.576C299.721 360.62 304.181 362.583 304.169 364.984L303.6 455.277C303.581 457.691 299.008 459.654 293.371 459.654Z" fill="white"/>
<path opacity="0.35" d="M292.752 566.153H148.011C142.368 566.153 137.789 564.184 137.789 561.758V470.289C137.789 467.832 142.481 465.85 148.205 465.894L293.516 467.076C299.096 467.119 303.556 469.083 303.544 471.484L302.974 561.777C302.956 564.196 298.383 566.153 292.752 566.153Z" fill="white"/>
</g>
<path opacity="0.7" d="M606.479 351.976L606.51 343.741C606.542 336.111 600.376 329.862 592.648 329.677L141.769 320.69C133.122 320.48 126.012 327.34 126.012 335.877V351.982H606.479V351.976Z" fill="white"/>
<path d="M148.564 344.619C152.886 344.619 156.389 341.322 156.389 337.255C156.389 333.188 152.886 329.891 148.564 329.891C144.243 329.891 140.74 333.188 140.74 337.255C140.74 341.322 144.243 344.619 148.564 344.619Z" fill="#C4A2F4"/>
<path d="M194.129 344.619C198.196 344.619 201.493 341.322 201.493 337.255C201.493 333.188 198.196 329.891 194.129 329.891C190.062 329.891 186.765 333.188 186.765 337.255C186.765 341.322 190.062 344.619 194.129 344.619Z" fill="#C4A2F4"/>
<path d="M171.117 344.619C175.184 344.619 178.481 341.322 178.481 337.255C178.481 333.188 175.184 329.891 171.117 329.891C167.05 329.891 163.753 333.188 163.753 337.255C163.753 341.322 167.05 344.619 171.117 344.619Z" fill="#C4A2F4"/>
<path d="M191.828 755.159C191.066 755.159 190.447 754.808 190.447 754.37V660.217C190.447 659.785 191.066 659.428 191.828 659.428C192.59 659.428 193.209 659.779 193.209 660.217V754.37C193.202 754.802 192.59 755.159 191.828 755.159Z" fill="#BC8DFF"/>
<path d="M152.246 755.159C151.485 755.159 150.866 754.808 150.866 754.37V660.217C150.866 659.785 151.485 659.428 152.246 659.428C153.008 659.428 153.627 659.779 153.627 660.217V754.37C153.62 754.802 153.001 755.159 152.246 755.159Z" fill="#BC8DFF"/>
<path d="M109.922 756.08L150.866 659.69C149.987 659.646 149.107 659.553 148.234 659.428L107.603 755.094" fill="#BC8DFF"/>
<path d="M148.205 755.233C147.934 755.879 148.23 756.624 148.865 756.9C149.026 756.969 149.192 757 149.353 757C149.84 757 150.303 756.712 150.501 756.229L191.368 658.664C190.485 658.601 189.603 658.551 188.714 658.507L148.205 755.233Z" fill="#BC8DFF"/>
<path d="M111.284 658.507H196.231C197.105 658.507 197.811 659.124 197.811 659.888C197.811 660.652 197.105 661.268 196.231 661.268H111.284" fill="#BC8DFF"/>
<path d="M178.481 684.281H138.899V687.042H178.481V684.281Z" fill="#BC8DFF"/>
<path d="M168.016 711.895H128.193C127.498 711.895 126.933 711.483 126.933 710.975C126.933 710.467 127.498 710.054 128.193 710.054H168.016C168.711 710.054 169.276 710.467 169.276 710.975C169.276 711.483 168.705 711.895 168.016 711.895Z" fill="#BC8DFF"/>
<path d="M156.97 736.749H117.147C116.452 736.749 115.887 736.13 115.887 735.368C115.887 734.606 116.452 733.988 117.147 733.988H156.97C157.665 733.988 158.23 734.606 158.23 735.368C158.23 736.137 157.665 736.749 156.97 736.749Z" fill="#BC8DFF"/>
<path d="M485.864 727.382C485.864 727.382 486.415 730.427 486.627 734.047C486.721 735.585 485.576 736.929 484.037 737.079C478.682 737.598 466.496 738.555 458.714 737.436C457.625 737.279 457.194 735.941 457.994 735.191C461.204 732.202 468.955 726.394 481.704 725.118L485.864 727.382Z" fill="url(#paint2_linear)"/>
<path d="M488.523 720.516L485.814 727.15C485.445 728.057 484.519 728.626 483.543 728.52C482.88 728.451 482.098 728.326 481.335 728.094C479.808 727.632 478.945 726.012 479.402 724.487L481.447 717.659L488.523 720.516Z" fill="url(#paint3_linear)"/>
<path d="M534.804 732.665C534.804 732.665 529.386 737.198 527.272 743.013C526.69 744.614 527.916 746.296 529.624 746.296H540.778C542.411 746.296 543.662 744.826 543.38 743.219C542.667 739.205 540.615 732.678 534.804 732.665Z" fill="url(#paint4_linear)"/>
<path d="M541.522 726.763C541.522 726.763 540.428 731.609 539.583 734.81C539.433 735.391 538.807 735.71 538.244 735.51C536.555 734.91 535.185 734.641 534.184 734.772C533.721 734.835 533.321 734.454 533.315 733.985L533.208 725.938L541.522 726.763Z" fill="url(#paint5_linear)"/>
<path d="M512.689 617.768L479.714 718.303C479.714 718.303 486.039 722.442 489.054 722.267L528.216 641.472C528.216 641.472 535.066 691.255 531.751 726.994L542.967 727.851C542.967 727.851 561.209 636.514 547.39 605.232L512.689 617.768Z" fill="#918CEB"/>
<path d="M528.01 640.609C528.022 640.609 528.035 640.609 528.047 640.609C528.222 640.584 528.348 640.428 528.323 640.253L527.04 630.105C527.021 629.93 526.859 629.811 526.684 629.83C526.508 629.855 526.383 630.011 526.408 630.186L527.691 640.334C527.709 640.49 527.847 640.609 528.01 640.609Z" fill="url(#paint6_linear)"/>
<path d="M506.508 529.301C506.508 529.301 533.221 531.67 529.442 550.697C529.442 550.697 544.206 578.471 551.113 611.19C551.338 612.253 550.625 613.291 549.549 613.479L505.063 621.094C503.837 621.307 502.655 620.538 502.342 619.337L491.713 578.277L487.572 597.366L474.41 593.939L485.489 537.848C485.489 537.842 487.034 529.657 506.508 529.301Z" fill="url(#paint7_linear)"/>
<path d="M491.488 576.433C491.513 576.433 491.532 576.433 491.557 576.427C491.738 576.389 491.851 576.214 491.807 576.033L488.097 559.014C488.06 558.832 487.885 558.72 487.703 558.764C487.522 558.801 487.409 558.976 487.447 559.157L491.157 576.177C491.2 576.327 491.332 576.433 491.488 576.433Z" fill="url(#paint8_linear)"/>
<path d="M494.172 627.078C495.573 626.309 497.212 626.097 498.764 626.478L501.86 627.247C502.517 627.41 503.168 626.959 503.243 626.284L506.446 597.791C510.45 599.692 516.23 599.467 518.132 599.323L510.762 632.918H484.963L494.172 627.078Z" fill="url(#paint9_linear)"/>
<path d="M425.626 565.272L426.408 562.684C426.859 561.196 427.96 559.989 429.405 559.408L443.506 553.736C443.506 553.736 443.718 551.929 440.528 550.698C437.337 549.472 438.082 545.896 438.082 545.896C438.082 545.896 442.442 547.884 448.829 551.042C452.483 552.842 454.528 556.031 455.617 558.426L487.572 597.36L483.818 599.937C478.883 603.325 472.101 601.662 469.299 596.373L451.989 563.197C443.293 565.804 434.497 566.304 425.626 565.272Z" fill="url(#paint10_linear)"/>
<path d="M497.857 511.137L506.071 534.122C506.071 534.122 498.795 539.805 493.484 537.886L489.342 524.712C489.349 524.712 492.508 508.611 497.857 511.137Z" fill="url(#paint11_linear)"/>
<path d="M473.334 502.884C473.334 503.241 481.247 525.274 481.247 525.274L493.74 520.491L489.342 498.489C489.349 498.495 473.334 496.957 473.334 502.884Z" fill="url(#paint12_linear)"/>
<path d="M487.153 503.853L490.375 515.252C490.418 515.395 490.437 515.545 490.437 515.695C490.437 516.627 490.206 519.822 486.946 519.391C483.987 518.997 481.279 518.678 479.558 519.491C478.783 519.853 478.413 520.741 478.708 521.548C479.427 523.549 481.135 528.032 483.205 531.702C483.625 532.446 484.55 532.734 485.332 532.383C487.678 531.314 492.564 528.926 496.049 526.087C496.518 525.7 496.749 525.099 496.637 524.499C496.086 521.585 494.46 512.713 494.385 510.168C494.316 507.78 496.993 505.96 498.176 505.279C498.564 505.054 498.839 504.685 498.945 504.247C499.314 502.709 499.627 499.233 495.192 498.47C494.266 498.307 493.659 497.419 493.847 496.5C494.222 494.662 494.103 491.961 490.612 490.967C487.065 489.954 484.832 492.086 483.7 493.724C483.243 494.387 482.38 494.599 481.648 494.274C481.229 494.087 480.722 494.08 480.178 494.537C479.446 495.156 478.332 494.968 477.794 494.174C476.762 492.655 474.879 491.135 471.701 492.161C466.058 493.987 466.327 500.489 468.398 504.028C470.469 507.567 476.474 505.235 479.321 502.896C481.485 501.115 484.776 502.184 486.227 502.796C486.677 502.978 487.022 503.372 487.153 503.853Z" fill="url(#paint13_linear)"/>
<path d="M495.511 514.326C495.511 514.326 492.17 508.011 494.378 506.029C496.587 504.047 500.328 504.372 500.228 509.311C500.109 515.451 495.511 514.326 495.511 514.326Z" fill="url(#paint14_linear)"/>
<path d="M515.548 599.755C517.369 599.755 518.67 599.617 518.814 599.598L519.051 599.573L528.779 554.249C528.817 554.067 528.704 553.892 528.523 553.855C528.341 553.817 528.166 553.93 528.129 554.111L518.501 598.967C517.056 599.092 509.324 599.605 505.245 596.716L513.671 557.337L511.913 554.024C511.826 553.861 511.626 553.799 511.463 553.886C511.3 553.974 511.238 554.174 511.325 554.336L512.971 557.438L504.507 596.997L504.675 597.122C507.622 599.336 512.37 599.755 515.548 599.755Z" fill="url(#paint15_linear)"/>
<path d="M502.961 750.178C503.212 750.178 503.468 750.122 503.718 750.009C504.688 749.553 505.138 748.321 504.719 747.264L464.544 645.379C464.125 644.316 462.999 643.829 462.029 644.285C461.06 644.741 460.609 645.973 461.028 647.03L501.203 748.915C501.51 749.703 502.217 750.178 502.961 750.178Z" fill="#BC8DFF"/>
<path d="M457.7 750.178C458.445 750.178 459.152 749.703 459.458 748.915L499.633 647.03C500.052 645.967 499.602 644.741 498.632 644.285C497.663 643.829 496.537 644.316 496.117 645.379L455.942 747.264C455.523 748.327 455.974 749.553 456.943 750.009C457.187 750.122 457.45 750.178 457.7 750.178Z" fill="#BC8DFF"/>
<path d="M331.951 750.178C332.202 750.178 332.458 750.122 332.708 750.009C333.678 749.553 334.128 748.321 333.709 747.264L293.534 645.379C293.115 644.316 291.989 643.829 291.019 644.285C290.05 644.741 289.599 645.973 290.018 647.03L330.194 748.915C330.5 749.703 331.207 750.178 331.951 750.178Z" fill="#BC8DFF"/>
<path d="M286.69 750.178C287.435 750.178 288.142 749.703 288.448 748.915L328.623 647.03C329.042 645.967 328.592 644.742 327.622 644.285C326.653 643.829 325.527 644.316 325.108 645.379L284.932 747.265C284.513 748.327 284.964 749.553 285.933 750.009C286.184 750.122 286.44 750.178 286.69 750.178Z" fill="#BC8DFF"/>
<path d="M358.889 681.519H354.141V732.859H358.889V681.519Z" fill="#BC8DFF"/>
<path d="M335.718 733.853H377.319V732.477C377.319 731.533 376.549 730.764 375.605 730.764H337.432C336.487 730.764 335.718 731.533 335.718 732.477V733.853Z" fill="#BC8DFF"/>
<path d="M329.543 679.737C329.543 682.544 331.839 684.845 334.654 684.845H376.743C379.552 684.845 381.854 682.551 381.854 679.737V675.123C381.854 672.315 379.558 670.014 376.743 670.014H334.654C331.845 670.014 329.543 672.309 329.543 675.123V679.737Z" fill="#BC8DFF"/>
<path d="M391.582 647.286C391.582 647.286 398.639 648.38 406.578 653.683C407.829 654.514 408.511 655.971 408.323 657.459C407.372 664.981 403.468 689.335 390.581 713.113C389.899 714.37 389.706 715.827 390.006 717.221L392.245 727.631L396.399 731.521H385.708L378.589 712.263L381.635 711.3C383.994 710.556 385.614 708.386 385.658 705.91L386.015 685.258C385.708 676.054 391.657 669.708 391.657 669.708L374.579 668.876L391.582 647.286Z" fill="url(#paint16_linear)"/>
<path d="M400.572 733.409C401.548 734.685 390.093 736.367 384.307 733.578C384.307 733.578 376.287 719.629 376.287 712.444C376.287 712.444 376.925 710.981 381.635 711.313C381.635 711.313 384.332 727.832 387.172 729.676C390.018 731.527 395.129 729.864 395.129 729.864C395.129 729.864 399.133 731.527 400.572 733.409Z" fill="url(#paint17_linear)"/>
<path d="M376.743 670.021C376.837 669.864 395.129 667.82 395.129 667.82C395.129 667.82 394.529 673.378 396.399 681.031C398.27 688.684 425.126 721.842 425.126 721.842L422.311 730.764C431.019 733.796 439.583 734.278 448.01 732.308L430.556 721.842C430.556 721.842 414.222 666.206 404.219 656.284L385.883 649.944L376.743 670.021Z" fill="url(#paint18_linear)"/>
<path d="M335.717 637.645C335.717 637.645 325.176 653.314 324.313 660.46C323.45 667.607 327.203 670.515 338.257 670.99C349.318 671.471 378.839 671.459 378.839 671.459L404.038 649.937C404.038 649.937 385.677 643.391 380.903 641.534C376.124 639.69 335.717 637.645 335.717 637.645Z" fill="url(#paint19_linear)"/>
<path d="M423.374 727.756C423.374 727.756 420.34 730.689 422.392 733.959C422.392 733.959 446.408 738.217 452.933 736.285C452.933 736.285 451.582 733.196 444.238 729.682L444.782 730.095C445.47 730.62 445.063 731.714 444.2 731.671C439.358 731.389 429.342 730.508 423.374 727.756Z" fill="url(#paint20_linear)"/>
<path d="M357.012 549.628C355.417 550.122 349.681 552.185 350.419 555.874C350.519 556.362 350.056 556.781 349.574 556.65C347.103 555.987 341.636 555.143 338.251 559.388C335.261 563.134 337.494 566.666 339.315 568.611C339.753 569.08 339.383 569.843 338.745 569.761C334.197 569.186 324.319 569.049 322.699 578.302C321.191 586.931 327.197 589.363 330.763 590.051C331.363 590.17 331.507 590.957 330.988 591.289C329.211 592.414 327.153 594.747 327.985 599.342C329.293 606.545 343.425 605.957 345.076 605.864C345.183 605.857 345.283 605.826 345.37 605.776L368.004 592.871C368.179 592.771 368.304 592.596 368.336 592.396L372.902 566.016C372.94 565.803 372.871 565.585 372.721 565.428L357.694 549.816C357.525 549.622 357.263 549.553 357.012 549.628Z" fill="url(#paint21_linear)"/>
<path d="M364.219 635.576C364.219 635.576 376.493 623.896 382.536 616.161C385.802 611.979 386.828 606.476 385.32 601.387C382.561 592.102 377.663 582.479 377.213 580.985C376.524 578.69 362.768 578.784 362.768 578.784C362.768 578.784 335.686 596.347 325.045 626.103L336.994 629.823C336.994 629.823 344.063 617.968 351.051 610.428C351.051 610.428 338.964 626.391 338.539 632.925L364.219 635.576Z" fill="url(#paint22_linear)"/>
<path d="M378.87 568.155C378.726 568.63 375.136 580.535 374.854 580.779C374.573 581.029 366.978 581.435 363.4 578.99L369.468 566.298L378.87 568.155Z" fill="url(#paint23_linear)"/>
<path d="M372.971 543.157C372.971 543.157 379.458 545.895 383.862 555.262C388.273 564.628 384.976 568.948 380.841 569.542C376.706 570.136 370.519 570.043 363.975 563.996C357.438 557.944 364.544 539.912 372.971 543.157Z" fill="url(#paint24_linear)"/>
<path d="M368.379 558.994C368.379 558.994 363.487 545.295 375.642 545.132L378.501 547.133C378.501 547.133 382.962 539.536 375.642 535.91C368.323 532.283 359.759 535.278 356.643 545.132C353.528 554.986 352.996 561.589 358.176 566.304C363.356 571.018 365.495 565.672 365.495 565.672C365.495 565.672 362.674 561.264 363.825 558.901C364.976 556.543 367.622 559.388 367.622 559.388L368.379 558.994Z" fill="url(#paint25_linear)"/>
<path d="M368.892 560.833C368.892 560.833 366.49 553.861 363.118 556.587C358.739 560.133 365.114 563.572 368.142 564.309L368.892 560.833Z" fill="url(#paint26_linear)"/>
<path d="M389.224 636.438L380.209 627.753L367.735 633.018C367.735 633.018 355.317 634.944 348.21 633.018C341.104 631.092 341.104 631.092 341.104 631.092L325.045 626.097L322.524 633.218C321.886 635.025 322.524 637.032 324.094 638.145C325.483 639.133 327.109 640.215 328.148 640.671C330.262 641.597 380.284 640.034 380.284 640.034L389.224 636.438Z" fill="url(#paint27_linear)"/>
<path d="M355.098 640.534C355.136 640.534 355.179 640.534 355.217 640.534L407.528 640.477C408.823 640.477 409.868 639.427 409.868 638.133C409.868 636.838 408.811 635.769 407.522 635.794L355.211 635.85C353.916 635.85 352.871 636.901 352.871 638.195C352.877 639.452 353.859 640.471 355.098 640.534Z" fill="url(#paint28_linear)"/>
<path d="M454.547 593.065H410.982C407.766 593.065 404.845 594.915 403.475 597.823L383.337 640.503H437.475C439.546 640.503 441.404 639.24 442.167 637.314L457.782 597.817C458.689 595.541 457.006 593.065 454.547 593.065Z" fill="#6A00FF"/>
<path d="M423.862 614.948C422.918 617.881 423.618 620.726 425.42 621.307C427.222 621.889 429.455 619.982 430.394 617.049C431.338 614.117 430.637 611.272 428.836 610.69C427.034 610.115 424.801 612.022 423.862 614.948Z" fill="#BC8DFF"/>
<path d="M460.008 638.864H511.487V633.555H460.008C461.109 633.555 461.109 638.864 460.008 638.864Z" fill="#6A00FF"/>
<path d="M510.869 638.864C511.213 638.864 511.494 638.583 511.494 638.239V634.181C511.494 633.837 511.213 633.555 510.869 633.555H459.07C458.726 633.555 458.445 633.287 458.445 632.955C458.445 632.624 458.726 632.355 459.07 632.355H514.441C515.667 632.355 516.662 633.349 516.662 634.575V637.97C516.662 639.126 515.723 640.064 514.566 640.064H459.064C458.72 640.064 458.438 639.796 458.438 639.464C458.438 639.133 458.72 638.864 459.064 638.864H510.869Z" fill="url(#paint29_linear)"/>
<path d="M281.992 642.447C281.861 641.853 282.042 641.24 282.48 640.778C282.924 640.315 283.581 640.04 284.276 640.04H519.877C520.79 640.04 521.641 640.446 522.135 641.115C522.63 641.784 522.692 642.622 522.311 643.347L519.758 648.143C519.176 649.244 517.907 649.944 516.511 649.944H285.896C284.601 649.944 283.487 649.144 283.237 648.043L281.992 642.447Z" fill="#BC8DFF"/>
<path d="M222.768 420.344C222.768 420.344 208.736 458.579 184.826 470.527C184.826 470.527 192.784 483.508 196.938 484.295C196.938 484.295 222.48 451.62 225.083 424.853L222.768 420.344Z" fill="url(#paint30_linear)"/>
<path d="M224.113 427.303C224.326 427.985 221.849 429.017 220.391 426.234C220.341 424.902 219.528 419.188 220.328 418.1C224.576 412.316 229.055 411.941 229.055 411.941C229.894 413.448 230.907 414.723 231.389 416.549C231.752 417.931 231.526 419.406 230.832 420.663C230.131 421.926 229.174 423.564 228.273 424.852C226.553 427.285 224.113 427.303 224.113 427.303Z" fill="url(#paint31_linear)"/>
<path d="M191.114 482.589L266.653 481.507C275.174 481.382 281.98 474.385 281.855 465.869L280.754 389.363C280.629 380.847 273.628 374.044 265.108 374.169L189.569 375.251C181.048 375.376 174.242 382.373 174.367 390.889L175.468 467.395C175.593 475.905 182.6 482.707 191.114 482.589Z" fill="#BC8DFF"/>
<path d="M184.708 454.908L204.52 426.384C204.72 426.097 205.07 425.915 205.452 425.909C205.834 425.903 206.19 426.065 206.409 426.353L218.833 442.628L238.264 415.086C238.477 414.786 238.84 414.604 239.234 414.592C239.628 414.579 240.003 414.748 240.228 415.036L271.245 454.714C271.501 455.04 271.533 455.59 271.332 455.94C271.126 456.284 270.726 456.634 270.275 456.634L229.368 456.684L209.099 456.709L185.684 456.734C185.277 456.734 184.895 456.403 184.695 456.077C184.482 455.746 184.489 455.221 184.708 454.908Z" fill="white"/>
<path d="M198.627 408.677C198.74 413.473 202.812 417.268 207.754 417.143C212.721 417.024 216.675 412.992 216.562 408.146C216.45 403.3 212.308 399.511 207.341 399.68C202.399 399.855 198.508 403.882 198.627 408.677Z" fill="white"/>
<path d="M171.433 438.183C171.433 438.183 166.497 440.584 165.596 443.335C164.87 445.548 159.415 445.829 158.877 450.175C158.602 452.42 156.938 454.214 154.698 454.558C149.131 455.408 140.541 458.303 139.171 467.97C138.12 475.348 141.886 478.149 145.834 479.112C148.737 479.825 150.663 482.644 150.075 485.571C149.512 488.378 150.351 491.623 155.218 494.193C166.122 499.945 177.013 480.569 177.013 480.569L179.246 446.736L171.433 438.183Z" fill="url(#paint32_linear)"/>
<path d="M126.603 650.338L125.896 656.134C125.765 657.235 124.896 658.104 123.795 658.229C121.937 658.441 118.953 658.66 116.031 658.347C114.749 658.21 113.917 656.916 114.311 655.69C115.024 653.452 116.325 650.094 118.202 648.112H124.639C125.828 648.118 126.747 649.156 126.603 650.338Z" fill="url(#paint33_linear)"/>
<path d="M177.013 582.41L178.101 588.794C178.101 588.794 174.467 625.622 173.816 640.353C173.716 642.66 174.31 644.942 175.524 646.912L181.849 657.178L165.771 647.7L165.452 645.736L168.086 642.122L164.639 600.868C164.439 598.442 164.939 596.016 166.078 593.865L169.406 587.619L177.013 582.41Z" fill="url(#paint34_linear)"/>
<path d="M182.906 658.672H177.776C176.819 658.672 175.912 658.235 175.324 657.472C173.722 655.396 170.413 651.344 168.824 651.238C166.691 651.094 166.966 658.672 166.966 658.672H165.771L164.257 649.256C163.876 646.886 165.058 644.542 167.185 643.429C167.185 643.429 167.673 647.03 170.319 648.625C172.965 650.219 181.079 655.928 181.079 655.928C181.079 655.928 182.074 655.784 183.163 655.984C184.777 656.272 184.551 658.672 182.906 658.672Z" fill="url(#paint35_linear)"/>
<path d="M154.992 585.443C154.992 585.443 133.685 625.847 130.294 635.069C126.904 644.292 125.721 651.989 125.677 652.72C125.609 653.858 124.189 654.952 120.285 654.952C118.271 654.952 117.282 654.146 116.8 653.364C116.388 652.695 116.369 651.864 116.713 651.157C117.945 648.662 121.855 640.697 123.307 637.083C125.039 632.768 128.755 613.21 130.801 606.414C132.84 599.617 135.149 592.239 144.032 585.449C144.026 585.443 150.125 579.472 154.992 585.443Z" fill="url(#paint36_linear)"/>
<path d="M168.455 519.241C173.954 495.956 160.028 482.794 160.028 482.794C168.818 474.366 184.827 470.527 184.827 470.527C184.827 470.527 200.103 481.688 198.289 490.429C197.226 495.55 187.554 521.104 187.554 521.104C187.554 521.104 178.602 525.337 168.455 519.241Z" fill="url(#paint37_linear)"/>
<path d="M156.269 530.771C158.508 524.037 168.455 519.247 168.455 519.247C178.602 525.337 187.548 521.104 187.548 521.104C187.548 521.104 189.556 528.77 188.167 535.891C186.785 543.013 178.095 588.8 178.095 588.8C164.407 591.57 143.35 586.012 143.35 586.012C152.071 570.537 154.029 537.505 156.269 530.771Z" fill="#F0B60A"/>
<path d="M174.836 455.14L170.369 475.204C169.944 476.974 171.552 476.68 173.341 476.349C176.269 475.798 180.041 474.66 181.305 472.384C181.436 472.153 181.498 471.89 181.536 471.628L183.457 457.716C183.607 456.609 183.012 455.54 181.993 455.09L178.289 453.445C176.857 452.814 175.205 453.627 174.836 455.14Z" fill="url(#paint38_linear)"/>
<path d="M180.078 436.038C180.078 436.038 185.371 438.27 188.968 445.917C192.565 453.564 189.881 457.09 186.503 457.578C183.125 458.06 178.077 457.991 172.74 453.051C167.404 448.112 173.197 433.393 180.078 436.038Z" fill="url(#paint39_linear)"/>
<path d="M176.331 448.969C176.331 448.969 172.34 437.783 182.262 437.652L184.595 439.283C184.595 439.283 188.236 433.081 182.262 430.123C176.287 427.166 169.293 429.611 166.753 437.652C164.214 445.699 163.776 451.082 168.005 454.934C172.234 458.785 173.979 454.421 173.979 454.421C173.979 454.421 171.677 450.819 172.615 448.894C173.554 446.968 175.718 449.294 175.718 449.294L176.331 448.969Z" fill="url(#paint40_linear)"/>
<path d="M175.218 450.213C175.218 450.213 173.197 444.454 170.507 446.749C167.811 449.043 172.697 452.07 174.605 453.051L175.218 450.213Z" fill="url(#paint41_linear)"/>
<path d="M157.557 488.991C157.557 488.991 198.439 538.886 228.98 482.076C228.98 482.076 229.568 480.625 229.199 478.524C229.012 477.468 229.712 473.71 230.1 471.79C230.225 471.171 229.787 470.59 229.162 470.527C228.674 470.477 228.192 470.684 227.886 471.071L222.305 478.174C221.886 479.581 222.562 481.082 223.882 481.707C224.726 482.107 224.995 483.183 224.426 483.927C201.198 514.358 162.349 480.963 161.636 481.357C159.115 482.757 156.2 484.296 157.557 488.991Z" fill="url(#paint42_linear)"/>
<path d="M403.356 521.967C422.704 521.967 438.389 506.29 438.389 486.953C438.389 467.615 422.704 451.938 403.356 451.938C384.008 451.938 368.323 467.615 368.323 486.953C368.323 506.29 384.008 521.967 403.356 521.967Z" fill="#BC8DFF"/>
<path d="M391.983 495.694L377.206 488.178V485.759L391.983 477.205V481.326L381.76 486.784L391.983 491.592V495.694Z" fill="white"/>
<path d="M407.704 473.866L399.302 499.251L395.079 499.208L403.418 473.922L407.704 473.866Z" fill="white"/>
<path d="M410.825 491.649L421.623 486.722L410.825 481.201V477.005L426.577 485.634V488.166L410.825 495.819V491.649Z" fill="white"/>
<path d="M466.421 467.638C485.769 467.638 501.454 451.962 501.454 432.624C501.454 413.286 485.769 397.61 466.421 397.61C447.073 397.61 431.388 413.286 431.388 432.624C431.388 451.962 447.073 467.638 466.421 467.638Z" fill="#BC8DFF"/>
<path d="M455.085 418.887V448.38C455.085 450.275 456.687 451.456 458.076 450.587L482.793 435.081C484.331 434.112 484.331 431.373 482.793 430.504L458.076 416.498C456.687 415.717 455.085 416.992 455.085 418.887Z" fill="white"/>
<path d="M543.011 504.472C562.359 504.472 578.044 488.796 578.044 469.458C578.044 450.12 562.359 434.444 543.011 434.444C523.663 434.444 507.979 450.12 507.979 469.458C507.979 488.796 523.663 504.472 543.011 504.472Z" fill="#BC8DFF"/>
<path d="M531.038 468.419H522.436V484.126H531.038V468.419Z" fill="white"/>
<path d="M544.982 459.353H536.38V484.132H544.982V459.353Z" fill="white"/>
<path d="M559.214 451.387H550.612V484.132H559.214V451.387Z" fill="white"/>
</g>
<defs>
<linearGradient id="paint0_linear" x1="374" y1="900" x2="388" y2="-1.54041e-05" gradientUnits="userSpaceOnUse">
<stop stop-color="#6901FE" stop-opacity="0.4"/>
<stop offset="1" stop-color="#6901FE" stop-opacity="0.79"/>
</linearGradient>
<linearGradient id="paint1_linear" x1="423.059" y1="587.696" x2="505.818" y2="495.419" gradientUnits="userSpaceOnUse">
<stop stop-color="#948EF8"/>
<stop offset="1" stop-color="#1A0F91"/>
</linearGradient>
<linearGradient id="paint2_linear" x1="471.661" y1="782.555" x2="471.22" y2="829.336" gradientUnits="userSpaceOnUse">
<stop stop-color="#09005D"/>
<stop offset="1" stop-color="#1A0F91"/>
</linearGradient>
<linearGradient id="paint3_linear" x1="482.944" y1="730.311" x2="485.37" y2="711.334" gradientUnits="userSpaceOnUse">
<stop stop-color="#FEBBBA"/>
<stop offset="1" stop-color="#FF928E"/>
</linearGradient>
<linearGradient id="paint4_linear" x1="534.9" y1="783.151" x2="534.459" y2="829.932" gradientUnits="userSpaceOnUse">
<stop stop-color="#09005D"/>
<stop offset="1" stop-color="#1A0F91"/>
</linearGradient>
<linearGradient id="paint5_linear" x1="536.025" y1="736.816" x2="538.389" y2="718.322" gradientUnits="userSpaceOnUse">
<stop stop-color="#FEBBBA"/>
<stop offset="1" stop-color="#FF928E"/>
</linearGradient>
<linearGradient id="paint6_linear" x1="537.454" y1="655.375" x2="534.807" y2="650.078" gradientUnits="userSpaceOnUse">
<stop stop-color="#4F52FF"/>
<stop offset="1" stop-color="#4042E2"/>
</linearGradient>
<linearGradient id="paint7_linear" x1="575.542" y1="480.829" x2="558.039" y2="509.599" gradientUnits="userSpaceOnUse">
<stop stop-color="#F0A30A"/>
<stop offset="1" stop-color="#FE7062"/>
</linearGradient>
<linearGradient id="paint8_linear" x1="525.669" y1="525.892" x2="513.79" y2="539.654" gradientUnits="userSpaceOnUse">
<stop stop-color="#E1473D"/>
<stop offset="1" stop-color="#E9605A"/>
</linearGradient>
<linearGradient id="paint9_linear" x1="518.138" y1="615.356" x2="484.968" y2="615.356" gradientUnits="userSpaceOnUse">
<stop stop-color="#FEBBBA"/>
<stop offset="1" stop-color="#FF928E"/>
</linearGradient>
<linearGradient id="paint10_linear" x1="487.571" y1="573.798" x2="425.628" y2="573.798" gradientUnits="userSpaceOnUse">
<stop stop-color="#FEBBBA"/>
<stop offset="1" stop-color="#FF928E"/>
</linearGradient>
<linearGradient id="paint11_linear" x1="509.872" y1="539.075" x2="488.326" y2="516.957" gradientUnits="userSpaceOnUse">
<stop stop-color="#FEBBBA"/>
<stop offset="1" stop-color="#FF928E"/>
</linearGradient>
<linearGradient id="paint12_linear" x1="478.608" y1="503.041" x2="505.467" y2="538.592" gradientUnits="userSpaceOnUse">
<stop stop-color="#FEBBBA"/>
<stop offset="1" stop-color="#FF928E"/>
</linearGradient>
<linearGradient id="paint13_linear" x1="499.134" y1="511.613" x2="467.029" y2="511.613" gradientUnits="userSpaceOnUse">
<stop stop-color="#09005D"/>
<stop offset="1" stop-color="#1A0F91"/>
</linearGradient>
<linearGradient id="paint14_linear" x1="517.972" y1="531.183" x2="496.426" y2="509.066" gradientUnits="userSpaceOnUse">
<stop stop-color="#FEBBBA"/>
<stop offset="1" stop-color="#FF928E"/>
</linearGradient>
<linearGradient id="paint15_linear" x1="548.433" y1="518.646" x2="537.182" y2="538.347" gradientUnits="userSpaceOnUse">
<stop stop-color="#E1473D"/>
<stop offset="1" stop-color="#E9605A"/>
</linearGradient>
<linearGradient id="paint16_linear" x1="462.421" y1="631.146" x2="372.377" y2="707.891" gradientUnits="userSpaceOnUse">
<stop stop-color="#FEBBBA"/>
<stop offset="1" stop-color="#FF928E"/>
</linearGradient>
<linearGradient id="paint17_linear" x1="387.69" y1="711.404" x2="392.652" y2="787.535" gradientUnits="userSpaceOnUse">
<stop stop-color="#4F52FF"/>
<stop offset="1" stop-color="#4042E2"/>
</linearGradient>
<linearGradient id="paint18_linear" x1="409.3" y1="691.25" x2="474.761" y2="728.795" gradientUnits="userSpaceOnUse">
<stop stop-color="#FEBBBA"/>
<stop offset="1" stop-color="#FF928E"/>
</linearGradient>
<linearGradient id="paint19_linear" x1="402.331" y1="572.477" x2="396.498" y2="584.985" gradientUnits="userSpaceOnUse">
<stop stop-color="#E1473D"/>
<stop offset="1" stop-color="#E9605A"/>
</linearGradient>
<linearGradient id="paint20_linear" x1="435.627" y1="708.279" x2="440.589" y2="784.41" gradientUnits="userSpaceOnUse">
<stop stop-color="#4F52FF"/>
<stop offset="1" stop-color="#4042E2"/>
</linearGradient>
<linearGradient id="paint21_linear" x1="365.358" y1="563.734" x2="416.003" y2="512.437" gradientUnits="userSpaceOnUse">
<stop stop-color="#E1473D"/>
<stop offset="1" stop-color="#E9605A"/>
</linearGradient>
<linearGradient id="paint22_linear" x1="368.873" y1="588.478" x2="331.035" y2="670.874" gradientUnits="userSpaceOnUse">
<stop stop-color="#F0C90A"/>
<stop offset="1" stop-color="#F0A30A"/>
</linearGradient>
<linearGradient id="paint23_linear" x1="367.96" y1="593.95" x2="371.521" y2="571.087" gradientUnits="userSpaceOnUse">
<stop stop-color="#FEBBBA"/>
<stop offset="1" stop-color="#FF928E"/>
</linearGradient>
<linearGradient id="paint24_linear" x1="383.368" y1="550.864" x2="351.889" y2="572.257" gradientUnits="userSpaceOnUse">
<stop stop-color="#FEBBBA"/>
<stop offset="1" stop-color="#FF928E"/>
</linearGradient>
<linearGradient id="paint25_linear" x1="358.417" y1="556.882" x2="409.063" y2="505.584" gradientUnits="userSpaceOnUse">
<stop stop-color="#E1473D"/>
<stop offset="1" stop-color="#E9605A"/>
</linearGradient>
<linearGradient id="paint26_linear" x1="385.783" y1="546.758" x2="349.333" y2="571.53" gradientUnits="userSpaceOnUse">
<stop stop-color="#FEBBBA"/>
<stop offset="1" stop-color="#FF928E"/>
</linearGradient>
<linearGradient id="paint27_linear" x1="347.494" y1="633.535" x2="280.545" y2="633.535" gradientUnits="userSpaceOnUse">
<stop stop-color="#FEBBBA"/>
<stop offset="1" stop-color="#FF928E"/>
</linearGradient>
<linearGradient id="paint28_linear" x1="382.975" y1="586.817" x2="381.309" y2="640.172" gradientUnits="userSpaceOnUse">
<stop stop-color="#4F52FF"/>
<stop offset="1" stop-color="#4042E2"/>
</linearGradient>
<linearGradient id="paint29_linear" x1="494.484" y1="549.753" x2="491.164" y2="590.857" gradientUnits="userSpaceOnUse">
<stop stop-color="#E1473D"/>
<stop offset="1" stop-color="#E9605A"/>
</linearGradient>
<linearGradient id="paint30_linear" x1="210.295" y1="439.647" x2="183.287" y2="501.129" gradientUnits="userSpaceOnUse">
<stop stop-color="#FEBBBA"/>
<stop offset="1" stop-color="#FF928E"/>
</linearGradient>
<linearGradient id="paint31_linear" x1="217.565" y1="437.609" x2="198.911" y2="480.074" gradientUnits="userSpaceOnUse">
<stop stop-color="#FEBBBA"/>
<stop offset="1" stop-color="#FF928E"/>
</linearGradient>
<linearGradient id="paint32_linear" x1="180.108" y1="418.452" x2="165.489" y2="455.142" gradientUnits="userSpaceOnUse">
<stop stop-color="#09005D"/>
<stop offset="1" stop-color="#1A0F91"/>
</linearGradient>
<linearGradient id="paint33_linear" x1="126.619" y1="653.312" x2="114.212" y2="653.312" gradientUnits="userSpaceOnUse">
<stop stop-color="#09005D"/>
<stop offset="1" stop-color="#1A0F91"/>
</linearGradient>
<linearGradient id="paint34_linear" x1="179.047" y1="702.214" x2="161.21" y2="493.641" gradientUnits="userSpaceOnUse">
<stop stop-color="#FEBBBA"/>
<stop offset="1" stop-color="#FF928E"/>
</linearGradient>
<linearGradient id="paint35_linear" x1="184.263" y1="651.047" x2="164.187" y2="651.047" gradientUnits="userSpaceOnUse">
<stop stop-color="#09005D"/>
<stop offset="1" stop-color="#1A0F91"/>
</linearGradient>
<linearGradient id="paint36_linear" x1="143.13" y1="705.317" x2="125.289" y2="496.689" gradientUnits="userSpaceOnUse">
<stop stop-color="#FEBBBA"/>
<stop offset="1" stop-color="#FF928E"/>
</linearGradient>
<linearGradient id="paint37_linear" x1="280.681" y1="443.718" x2="248.158" y2="461.239" gradientUnits="userSpaceOnUse">
<stop stop-color="#FF928E"/>
<stop offset="1" stop-color="#FE7062"/>
</linearGradient>
<linearGradient id="paint38_linear" x1="181.005" y1="496.625" x2="177.654" y2="472.1" gradientUnits="userSpaceOnUse">
<stop stop-color="#FEBBBA"/>
<stop offset="1" stop-color="#FF928E"/>
</linearGradient>
<linearGradient id="paint39_linear" x1="189.471" y1="465.005" x2="160.23" y2="412.939" gradientUnits="userSpaceOnUse">
<stop stop-color="#FEBBBA"/>
<stop offset="1" stop-color="#FF928E"/>
</linearGradient>
<linearGradient id="paint40_linear" x1="183.178" y1="419.676" x2="168.559" y2="456.366" gradientUnits="userSpaceOnUse">
<stop stop-color="#09005D"/>
<stop offset="1" stop-color="#1A0F91"/>
</linearGradient>
<linearGradient id="paint41_linear" x1="183.241" y1="468.504" x2="154.001" y2="416.438" gradientUnits="userSpaceOnUse">
<stop stop-color="#FEBBBA"/>
<stop offset="1" stop-color="#FF928E"/>
</linearGradient>
<linearGradient id="paint42_linear" x1="187.885" y1="468.256" x2="206.864" y2="506.259" gradientUnits="userSpaceOnUse">
<stop stop-color="#FEBBBA"/>
<stop offset="1" stop-color="#FF928E"/>
</linearGradient>
</defs>
</svg>
