<svg width="140" height="47" viewBox="0 0 140 47" fill="none" xmlns="http://www.w3.org/2000/svg">
<path d="M58.039 6.4473H65.4637V33.5938H79.2105V40.5262H58.0263L58.039 6.4473Z" fill="#6901FE"/>
<path d="M94.0045 6.4473H100.242L115.132 40.5262H106.621L103.674 33.2974H90.378L87.5265 40.5262H79.2105L94.0045 6.4473ZM96.9053 16.3663L92.7577 26.9515H101.107L96.9053 16.3663Z" fill="#6901FE"/>
<path d="M134.744 14.7529C134.092 13.9556 133.223 13.3608 132.241 13.0391C131.282 12.6869 130.271 12.4995 129.249 12.4851C128.676 12.4879 128.105 12.5521 127.546 12.6767C126.97 12.8036 126.414 13.0065 125.893 13.2799C125.391 13.539 124.958 13.9114 124.628 14.3672C124.294 14.8492 124.123 15.4239 124.14 16.0085C124.117 16.4689 124.212 16.9274 124.417 17.3412C124.621 17.7551 124.928 18.1107 125.308 18.3747C126.214 18.9801 127.206 19.4486 128.25 19.7649C129.434 20.1515 130.707 20.5373 132.068 20.9222C133.409 21.3 134.693 21.8528 135.887 22.5661C137.076 23.2782 138.083 24.2527 138.831 25.4138C139.608 26.6047 139.997 28.1977 139.997 30.1928C140.037 31.9107 139.67 33.6138 138.928 35.166C138.245 36.5446 137.255 37.7505 136.033 38.692C134.77 39.646 133.334 40.3492 131.802 40.763C128.081 41.775 124.14 41.6623 120.483 40.4394C118.493 39.7173 116.672 38.6004 115.132 37.1568L120.53 31.2672C121.301 32.2897 122.312 33.11 123.475 33.6567C124.619 34.2101 125.874 34.4987 127.147 34.5006C127.777 34.4989 128.406 34.4259 129.02 34.2832C129.617 34.1514 130.191 33.9315 130.723 33.6308C131.208 33.3576 131.624 32.9777 131.938 32.5202C132.252 32.0487 132.413 31.4931 132.4 30.928C132.417 30.4558 132.318 29.9865 132.11 29.5613C131.902 29.1362 131.592 28.7681 131.208 28.4893C130.295 27.8331 129.286 27.3205 128.216 26.9697C127.017 26.5503 125.72 26.1318 124.325 25.7141C122.963 25.3101 121.657 24.7423 120.434 24.0236C119.24 23.3214 118.218 22.3646 117.442 21.2225C116.648 20.0661 116.25 18.5378 116.25 16.6376C116.213 14.9636 116.589 13.3059 117.346 11.8094C118.052 10.4536 119.048 9.26703 120.264 8.33261C121.522 7.37752 122.949 6.66533 124.471 6.23306C126.069 5.76123 127.728 5.52314 129.395 5.5263C131.306 5.52169 133.207 5.79825 135.036 6.34696C136.857 6.89816 138.534 7.83736 139.95 9.09891L134.744 14.7529Z" fill="#6901FE"/>
<path d="M29.4056 23.4868C29.4056 20.2182 26.7555 17.5681 23.4869 17.5681C20.2183 17.5681 17.5695 20.2182 17.5695 23.4868C17.5695 26.7554 20.2196 29.4042 23.4869 29.4042C26.7555 29.4055 29.4056 26.7554 29.4056 23.4868Z" fill="#6A00FF"/>
<path d="M27.2865 32.5228C26.1174 33.016 24.8335 33.29 23.4869 33.29C22.1416 33.29 20.859 33.0173 19.6899 32.5241L15.2495 39.0508C16.4774 39.7032 17.7874 40.2225 19.1666 40.5696L20.3853 46.9737H26.5885L27.8072 40.5696C29.1864 40.2212 30.4977 39.7019 31.7269 39.0495L27.2865 32.5228Z" fill="#6A00FF"/>
<path d="M40.5683 27.8058L46.9737 26.5871V20.384L40.5696 19.1653C40.1469 17.4899 39.484 15.9097 38.6189 14.464L42.2881 9.07114L37.8999 4.68432L32.5071 8.35349C31.0614 7.4897 29.4812 6.82685 27.8058 6.40408L26.5884 0L20.3853 0.00260965L19.1666 6.40539C17.4912 6.82815 15.911 7.491 14.4653 8.35479L9.07245 4.68563L4.68693 9.07375L8.35479 14.4653C7.491 15.911 6.82815 17.4912 6.40539 19.1666L0 20.3853L0.00260965 26.5884L6.40539 27.8071C6.82815 29.4825 7.491 31.0627 8.35479 32.5084L4.68563 37.9013L8.64316 41.8562L16.4825 30.332C14.7537 28.5639 13.6837 26.1487 13.6837 23.4869C13.6837 18.081 18.081 13.6837 23.4855 13.6837C28.8901 13.6837 33.2887 18.081 33.2887 23.4869C33.2887 26.1474 32.22 28.5613 30.4925 30.3294L38.3345 41.8536L42.2894 37.8986L38.6202 32.5058C39.484 31.0614 40.1469 29.4812 40.5683 27.8058Z" fill="#F0A30A"/>
</svg>
