<svg xmlns="http://www.w3.org/2000/svg" xmlns:xlink="http://www.w3.org/1999/xlink" width="16" height="16" viewBox="0 0 16 16">
  <defs>
    <clipPath id="clip-path">
      <rect id="Rectangle_1" data-name="Rectangle 1" width="16" height="16" rx="8" transform="translate(117 1)" fill="#fff"/>
    </clipPath>
  </defs>
  <g id="Social" transform="translate(-117 -1)">
    <g id="Group_1" data-name="Group 1" clip-path="url(#clip-path)">
      <path id="Path_4" data-name="Path 4" d="M125.065,9.2c.065-.021.13-.041.2-.06-.125-.282-.261-.564-.4-.843a18.087,18.087,0,0,1-5.09.706c0,.053,0,.1,0,.158a4.937,4.937,0,0,0,1.271,3.313l0,0A7.846,7.846,0,0,1,125.065,9.2Z" fill="#1e266d"/>
      <path id="Path_5" data-name="Path 5" d="M124.447,7.53a29.8,29.8,0,0,0-1.841-2.857,4.962,4.962,0,0,0-2.736,3.463A18.381,18.381,0,0,0,124.447,7.53Z" fill="#1e266d"/>
      <path id="Path_6" data-name="Path 6" d="M128,5.436a4.961,4.961,0,0,0-4.444-1.1,25.3,25.3,0,0,1,1.854,2.893A5.415,5.415,0,0,0,128,5.436Z" fill="#1e266d"/>
      <path id="Path_7" data-name="Path 7" d="M123.535,4.343a.054.054,0,0,0-.017,0l.015,0Z" fill="#1e266d"/>
      <path id="Path_8" data-name="Path 8" d="M121.674,13.066v0c-.037-.029-.076-.055-.112-.085C121.629,13.032,121.674,13.066,121.674,13.066Z" fill="#1e266d"/>
      <path id="Path_9" data-name="Path 9" d="M125.789,7.97c.115.237.226.477.33.719l.106.257a11.533,11.533,0,0,1,3.454.161,4.932,4.932,0,0,0-1.128-3.1A6.375,6.375,0,0,1,125.789,7.97Z" fill="#1e266d"/>
      <path id="Path_10" data-name="Path 10" d="M125.566,9.968a6.724,6.724,0,0,0-3.891,3.1,4.951,4.951,0,0,0,4.983.658,20.7,20.7,0,0,0-1.06-3.765Z" fill="#1e266d"/>
      <path id="Path_11" data-name="Path 11" d="M124.722,1.157a8,8,0,1,0,8,8A8,8,0,0,0,124.722,1.157Zm5.349,10.26a5.692,5.692,0,0,1-.535.986,5.809,5.809,0,0,1-9.629,0,5.788,5.788,0,0,1-.874-2.077,5.849,5.849,0,0,1,0-2.338,5.693,5.693,0,0,1,.339-1.091,5.782,5.782,0,0,1,.535-.987,5.824,5.824,0,0,1,2.554-2.1,5.758,5.758,0,0,1,1.091-.338,5.858,5.858,0,0,1,2.339,0,5.746,5.746,0,0,1,2.077.874,5.949,5.949,0,0,1,.859.708,5.86,5.86,0,0,1,.709.859,5.776,5.776,0,0,1,.873,2.078,5.8,5.8,0,0,1,0,2.338A5.705,5.705,0,0,1,130.071,11.417Z" fill="#1e266d"/>
      <path id="Path_12" data-name="Path 12" d="M126.528,9.728a21.56,21.56,0,0,1,.965,3.542,4.957,4.957,0,0,0,2.124-3.326A7.194,7.194,0,0,0,126.528,9.728Z" fill="#1e266d"/>
    </g>
  </g>
</svg>
