<svg width="16" height="14" viewBox="0 0 16 14" fill="none" xmlns="http://www.w3.org/2000/svg">
<path d="M15.8993 1.59814C15.3151 1.86028 14.6865 2.03711 14.0269 2.11624C14.7004 1.70919 15.2168 1.06442 15.4603 0.295254C14.8304 0.672672 14.133 0.946535 13.3902 1.09438C12.7958 0.454818 11.9485 0.0549316 11.0109 0.0549316C9.21076 0.0549316 7.75127 1.52846 7.75127 3.34618C7.75127 3.60376 7.77998 3.85483 7.83578 4.09613C5.12645 3.95871 2.72418 2.64866 1.11632 0.657366C0.83571 1.14322 0.675086 1.70853 0.675086 2.31227C0.675086 3.45397 1.2505 4.4615 2.12522 5.05156C1.5911 5.0343 1.08826 4.88613 0.648637 4.63962C0.648315 4.6533 0.648315 4.6673 0.648315 4.68131C0.648315 6.27564 1.77204 7.60556 3.26346 7.9084C2.98995 7.9833 2.70192 8.02368 2.40454 8.02368C2.19424 8.02368 1.99008 8.00317 1.79107 7.96442C2.20618 9.27186 3.4099 10.2237 4.83616 10.2501C3.7205 11.1329 2.3152 11.6591 0.787652 11.6591C0.524782 11.6591 0.265138 11.6435 0.0100098 11.6129C1.45305 12.5472 3.16638 13.0916 5.00711 13.0916C11.0034 13.0916 14.282 8.07676 14.282 3.72751C14.282 3.58487 14.2791 3.44257 14.273 3.30124C14.9097 2.83818 15.4625 2.25822 15.8993 1.59814Z" fill="#1E266D"/>
</svg>
