<svg width="38" height="43" viewBox="0 0 38 43" fill="none" xmlns="http://www.w3.org/2000/svg">
<path opacity="0.4" d="M36.71 27.814C37.1 27.424 37.1 26.794 36.71 26.404C34.06 23.754 30.75 21.874 27.12 20.954C32.44 18.084 34.43 11.434 31.56 6.11402C28.69 0.794019 22.04 -1.19598 16.72 1.67402C11.4 4.54402 9.39998 11.184 12.28 16.514C13.29 18.394 14.84 19.934 16.72 20.954C7.45998 23.304 0.989979 31.644 0.999979 41.194C0.949979 41.744 1.35998 42.234 1.90998 42.284C2.45998 42.334 2.94998 41.924 2.99998 41.374C3.00998 41.314 3.00998 41.254 2.99998 41.194C2.99998 30.744 11.47 22.264 21.93 22.264C26.95 22.264 31.76 24.254 35.31 27.804C35.69 28.194 36.32 28.194 36.71 27.814ZM12.95 11.314C12.95 6.36402 16.96 2.34402 21.92 2.34402C26.88 2.34402 30.88 6.35402 30.88 11.314C30.88 16.274 26.87 20.284 21.91 20.284C16.97 20.264 12.96 16.264 12.95 11.314Z" fill="#666666"/>
</svg>
