<svg width="19" height="20" viewBox="0 0 19 20" fill="none" xmlns="http://www.w3.org/2000/svg">
<path d="M15.876 12.64C14.916 11.67 13.746 10.94 12.456 10.49C14.826 8.86 15.426 5.63 13.796 3.26C12.166 0.89 8.93599 0.29 6.57599 1.92C4.21599 3.55 3.60599 6.78 5.22599 9.15C5.58599 9.68 6.04599 10.13 6.56599 10.49C2.94599 11.75 0.515991 15.16 0.515991 19H1.92599C1.92599 14.81 5.32599 11.41 9.51599 11.41C13.706 11.41 17.106 14.81 17.106 19H18.516C18.526 16.61 17.576 14.32 15.876 12.64ZM9.51599 10C7.41599 10 5.71599 8.3 5.71599 6.2C5.71599 4.1 7.41599 2.4 9.51599 2.4C11.616 2.4 13.316 4.1 13.316 6.2C13.316 8.3 11.616 10 9.51599 10Z" fill="#E3E5E8" stroke="white" stroke-width="0.5"/>
</svg>
